<?xml version="1.0" standalone="no"?>
<!DOCTYPE svg PUBLIC "-//W3C//DTD SVG 20010904//EN"
 "http://www.w3.org/TR/2001/REC-SVG-20010904/DTD/svg10.dtd">
<svg version="1.0" xmlns="http://www.w3.org/2000/svg"
 width="256.000000pt" height="256.000000pt" viewBox="0 0 256.000000 256.000000"
 preserveAspectRatio="xMidYMid meet">

<g transform="translate(0.000000,256.000000) scale(0.100000,-0.100000)"
fill="#555" stroke="none">
<path d="M125 2536 c-59 -27 -77 -46 -104 -106 -20 -44 -21 -60 -21 -1150 0
-1090 1 -1106 21 -1150 27 -60 45 -79 104 -106 l50 -24 1105 0 1105 0 50 24
c59 27 77 46 104 106 20 44 21 61 21 1150 l0 1105 -24 50 c-27 59 -46 77 -106
104 -44 20 -61 21 -1150 21 l-1105 0 -50 -24z m2285 -81 c45 -23 60 -62 60
-155 l0 -80 -1190 0 -1190 0 0 80 c0 53 5 91 15 110 32 63 -36 59 1173 60 967
0 1107 -2 1132 -15z m60 -1300 c0 -1071 3 -1017 -60 -1050 -25 -13 -165 -15
-1130 -15 -965 0 -1105 2 -1130 15 -63 33 -60 -21 -60 1050 l0 975 1190 0
1190 0 0 -975z"/>
<path d="M226 2368 c-28 -40 14 -76 74 -63 34 7 50 46 30 70 -20 24 -86 19
-104 -7z"/>
<path d="M440 2376 c-6 -8 -10 -25 -8 -38 2 -19 9 -23 38 -23 29 0 36 4 38 23
4 28 -14 52 -38 52 -10 0 -23 -7 -30 -14z"/>
<path d="M610 2375 c-7 -9 -10 -25 -6 -40 6 -22 11 -26 39 -23 25 2 33 8 35
26 7 44 -41 70 -68 37z"/>
<path d="M826 2374 c-22 -21 -20 -40 6 -58 20 -14 108 -16 750 -16 723 0 728
0 749 21 18 18 19 23 6 42 l-14 22 -741 3 c-663 2 -742 0 -756 -14z"/>
<path d="M664 1702 c-6 -4 -111 -157 -233 -341 -208 -313 -221 -334 -208 -355
14 -21 19 -21 332 -21 310 0 318 1 331 21 12 17 12 23 0 40 -13 18 -32 19
-280 24 l-266 5 150 225 150 225 0 -172 c0 -143 3 -174 16 -187 22 -22 41 -20
59 8 14 21 16 59 13 266 -3 226 -4 243 -22 256 -22 16 -27 17 -42 6z"/>
<path d="M1111 1701 c-49 -13 -83 -41 -108 -91 -23 -44 -23 -50 -23 -415 0
-339 2 -373 19 -411 39 -86 98 -107 286 -102 148 3 184 17 227 86 23 37 23 38
23 422 0 436 0 437 -78 488 -38 25 -48 27 -176 29 -75 1 -151 -2 -170 -6z
m300 -94 c37 -28 39 -48 39 -420 l0 -364 -26 -27 c-26 -26 -29 -26 -166 -26
-134 0 -140 1 -163 25 l-25 24 0 376 0 376 25 24 c23 24 29 25 162 25 93 -1
143 -5 154 -13z"/>
<path d="M2068 1698 c-19 -16 -439 -646 -445 -669 -3 -9 3 -23 12 -33 15 -14
52 -16 329 -16 229 0 315 3 324 12 16 16 15 55 0 65 -7 4 -131 10 -275 13
l-263 5 150 225 150 225 0 -177 c0 -167 1 -178 20 -188 14 -8 26 -8 40 0 19
10 20 21 20 270 0 246 -1 260 -19 270 -24 13 -24 13 -43 -2z"/>
<path d="M661 884 c-18 -13 -21 -25 -21 -94 0 -58 4 -83 16 -94 20 -21 30 -20
54 4 16 16 20 33 20 79 0 98 -25 135 -69 105z"/>
<path d="M2073 889 c-22 -8 -23 -14 -23 -98 0 -80 2 -92 20 -101 14 -8 26 -8
40 0 18 9 20 21 20 100 0 98 -11 117 -57 99z"/>
<path d="M826 454 c-22 -21 -20 -40 6 -58 19 -14 79 -16 448 -16 369 0 429 2
448 16 26 18 28 37 6 58 -14 14 -69 16 -454 16 -385 0 -440 -2 -454 -16z"/>
<path d="M996 284 c-22 -21 -20 -40 6 -58 33 -24 523 -24 556 0 26 18 28 37 6
58 -23 24 -545 24 -568 0z"/>
</g>
</svg>
